Coordinates
version=1
nRows=11
nColumns=40
inDegrees=yes

Units are S.I. units (second, meters, Newtons, ...)
Angles are in degrees.

endheader
time	pelvis_tilt	pelvis_list	pelvis_rotation	pelvis_tx	pelvis_ty	pelvis_tz	hip_flexion_r	hip_adduction_r	hip_rotation_r	knee_angle_r	knee_angle_r_beta	ankle_angle_r	subtalar_angle_r	mtp_angle_r	hip_flexion_l	hip_adduction_l	hip_rotation_l	knee_angle_l	knee_angle_l_beta	ankle_angle_l	subtalar_angle_l	mtp_angle_l	lumbar_extension	lumbar_bending	lumbar_rotation	arm_flex_r	arm_add_r	arm_rot_r	elbow_flex_r	pro_sup_r	wrist_flex_r	wrist_dev_r	arm_flex_l	arm_add_l	arm_rot_l	elbow_flex_l	pro_sup_l	wrist_flex_l	wrist_dev_l
      7.86250000	     -0.45654632	     -4.83463845	     -2.90955335	      1.07758527	      0.93191963	      0.45389411	     14.71597470	      0.87160450	     -9.31423968	     19.21161042	     19.21161042	      6.99070234	     -0.65343137	     -3.55880822	      0.03908061	     -9.28176801	    -12.73857671	     28.16042124	     28.16042124	     17.82728449	     -8.69996427	     -4.40511064	     -8.73821020	      4.88295934	     -0.32989849	     -0.36412404	    -14.61661715	     -7.31217835	     42.80168529	     44.22999244	      0.00000000	      0.00000000	     12.45864690	    -14.31731810	    -10.77927178	     49.42564876	     45.78319996	      0.00000000	      0.00000000
      7.87600000	     -0.25766548	     -5.03013181	     -2.63614051	      1.07826540	      0.93270104	      0.45722231	     13.84357686	      1.25430553	     -9.74467776	     18.85624538	     18.85624538	      7.24379482	     -0.37039993	     -3.58797020	      1.34313909	    -10.23807854	    -12.00960038	     31.55752924	     31.55752924	     16.71615794	     -9.68499804	     -5.29294266	     -8.90591815	      4.98133387	     -0.18101963	      0.98156864	    -14.88942083	     -7.38576941	     43.68671787	     44.22101234	      0.00000000	      0.00000000	     11.62255251	    -14.10669114	    -10.58528119	     48.35512591	     45.75749338	      0.00000000	      0.00000000
      7.88950000	     -0.19184812	     -5.13140918	     -2.30635048	      1.07875803	      0.93304872	      0.46038275	     13.17432919	      1.50238618	    -10.25121694	     18.60700553	     18.60700553	      7.58654291	      0.05099587	     -3.76464120	      2.85447807	    -11.06767653	    -11.11164024	     34.69754401	     34.69754401	     13.04086275	    -12.08851319	    -11.32605431	     -8.82323316	      5.06355144	      0.15226549	      1.47141821	    -15.58219197	     -6.48518714	     46.69952796	     44.18198637	      0.00000000	      0.00000000	     11.90892429	    -13.80469193	     -9.80226598	     44.02821524	     45.74135341	      0.00000000	      0.00000000
      7.90300000	     -0.03432169	     -5.33626242	     -1.95614635	      1.07896476	      0.93335463	      0.46361989	     12.43087523	      1.90425907	    -10.63943497	     18.36247964	     18.36247964	      7.90143655	      0.21838484	     -3.82565438	      4.76455802	    -12.09981188	    -10.11237783	     38.83204455	     38.83204455	     11.31632388	    -13.07138095	    -12.08204772	     -8.97996605	      5.16466876	      0.22865815	      3.05077205	    -15.87661522	     -6.65694464	     47.73068169	     44.17287815	      0.00000000	      0.00000000	     10.94879345	    -13.66297841	     -9.62786407	     43.11102541	     45.71546171	      0.00000000	      0.00000000
      7.91650000	     -0.09074719	     -5.49595462	     -1.56762493	      1.07879938	      0.93315394	      0.46664127	     12.01066055	      2.23982700	    -11.05392888	     18.22298733	     18.22298733	      8.16961096	      0.30998289	     -3.91612482	      7.15744915	    -13.00436946	     -8.82207403	     43.13184886	     43.13184886	      8.91190767	    -14.35573624	    -13.28361780	     -8.84555861	      5.26885514	     -0.15265338	      4.66040717	    -16.06495714	     -6.65614419	     49.42843475	     44.13799262	      0.00000000	      0.00000000	      9.86128694	    -13.68697332	     -9.36081883	     41.39694604	     45.67944629	      0.00000000	      0.00000000
      7.93000000	      0.03295163	     -5.64502885	     -1.19291642	      1.07847075	      0.93295764	      0.46959007	     11.48815412	      2.56063373	    -11.35413321	     18.23657007	     18.23657007	      8.55386630	      0.30198579	     -4.15549222	      9.33698658	    -13.82185185	     -7.52951878	     47.13043896	     47.13043896	      5.30584022	    -16.20851025	    -16.38550068	     -8.97788524	      5.35040905	      0.26832147	      5.30640516	    -17.09153434	     -5.43157825	     53.16824473	     44.05085853	      0.00000000	      0.00000000	     10.14900640	    -13.41654423	     -8.55490284	     37.64571264	     45.64912291	      0.00000000	      0.00000000
      7.94350000	      0.14867592	     -5.89921109	     -0.79609452	      1.07784197	      0.93267167	      0.47242376	     10.97854941	      3.00461737	    -11.67198740	     18.19649626	     18.19649626	      8.90699292	      0.25734116	     -4.26565639	     11.80136907	    -14.67064779	     -6.07135310	     51.44928386	     51.44928386	      2.90932123	    -16.86912374	    -16.10514256	     -9.16630857	      5.49801958	      0.40938861	      7.12080506	    -17.50376460	     -5.66980611	     54.35885971	     44.03915304	      0.00000000	      0.00000000	      9.25235706	    -13.19256361	     -8.39187506	     36.76596695	     45.62294647	      0.00000000	      0.00000000
      7.95700000	      0.03639978	     -6.02333278	     -0.36207894	      1.07690470	      0.93198413	      0.47485218	     10.84043509	      3.27509946	    -11.92584431	     18.32835883	     18.32835883	      9.20921259	     -0.03053612	     -4.40303569	     14.62472054	    -15.13750797	     -4.38955751	     55.63034123	     55.63034123	      0.71642833	    -17.45280198	    -14.67521160	     -9.04134544	      5.57928075	     -0.06318604	      8.98983852	    -17.66290699	     -5.62621336	     56.58192818	     43.99072807	      0.00000000	      0.00000000	      8.19910549	    -13.21120614	     -8.12100970	     35.00249552	     45.58894611	      0.00000000	      0.00000000
      7.97050000	      0.15897983	     -6.23777480	      0.02042549	      1.07589551	      0.93163546	      0.47724207	     10.41215465	      3.65314933	    -12.18365767	     18.37543359	     18.37543359	      9.59036284	     -0.17292445	     -4.53889176	     17.07613999	    -15.60378293	     -2.81990775	     59.35447580	     59.35447580	     -1.32543915	    -17.78224547	    -13.27878048	     -9.27378284	      5.71436619	      0.14435558	     10.83004066	    -18.20078838	     -5.66827698	     58.13787297	     43.95925941	      0.00000000	      0.00000000	      7.39701897	    -12.90109198	     -7.93050104	     33.89823457	     45.56083791	      0.00000000	      0.00000000
      7.98400000	      0.11812724	     -6.22039908	      0.40790617	      1.07462222	      0.93115647	      0.47913144	     10.26438044	      3.73117080	    -12.37076668	     18.57603882	     18.57603882	      9.91325752	     -0.40943216	     -4.75009517	     19.88173341	    -15.44110698	     -1.07029429	     63.17897052	     63.17897052	     -0.60088413	    -16.99083901	     -5.15545216	     -9.30807405	      5.66040046	      0.42768989	     11.75983912	    -19.37695040	     -4.34862473	     62.41650284	     43.85856332	      0.00000000	      0.00000000	      7.46545735	    -12.56235007	     -7.28292347	     30.50120408	     45.54512139	      0.00000000	      0.00000000
      7.99750000	      0.13162870	     -6.28196377	      0.76794962	      1.07337642	      0.93093568	      0.48099030	      9.95071988	      3.91213199	    -12.62115100	     18.57527838	     18.57527838	     10.23363660	     -0.47161232	     -4.81023005	     22.28828049	    -15.44232108	      0.28784459	     66.04523775	     66.04523775	     -0.94852590	    -16.79355444	     -1.03437405	     -9.41323726	      5.66843160	      0.63196641	     13.47856198	    -19.79457085	     -4.72708316	     64.64592729	     43.92578733	      0.00000000	      0.00000000	      6.78754835	    -12.25081340	     -6.91414553	     28.93018093	     45.56567290	      0.00000000	      0.00000000
